<svg width="16" height="17" viewBox="0 0 16 17" fill="none" xmlns="http://www.w3.org/2000/svg">
<path d="M11.7895 16.8421V14.3158H9.26316V12.6316H11.7895V10.1053H13.4737V12.6316H16V14.3158H13.4737V16.8421H11.7895ZM4.21053 11.7895C4.44912 11.7895 4.64926 11.7086 4.81095 11.5469C4.97207 11.3858 5.05263 11.186 5.05263 10.9474C5.05263 10.7088 4.97207 10.5086 4.81095 10.3469C4.64926 10.1858 4.44912 10.1053 4.21053 10.1053C3.97193 10.1053 3.77179 10.1858 3.61011 10.3469C3.44898 10.5086 3.36842 10.7088 3.36842 10.9474C3.36842 11.186 3.44898 11.3858 3.61011 11.5469C3.77179 11.7086 3.97193 11.7895 4.21053 11.7895ZM4.21053 8.42105C4.44912 8.42105 4.64926 8.34021 4.81095 8.17853C4.97207 8.0174 5.05263 7.81754 5.05263 7.57895C5.05263 7.34035 4.97207 7.14021 4.81095 6.97853C4.64926 6.8174 4.44912 6.73684 4.21053 6.73684C3.97193 6.73684 3.77179 6.8174 3.61011 6.97853C3.44898 7.14021 3.36842 7.34035 3.36842 7.57895C3.36842 7.81754 3.44898 8.0174 3.61011 8.17853C3.77179 8.34021 3.97193 8.42105 4.21053 8.42105ZM4.21053 5.05263C4.44912 5.05263 4.64926 4.97179 4.81095 4.81011C4.97207 4.64898 5.05263 4.44912 5.05263 4.21053C5.05263 3.97193 4.97207 3.77179 4.81095 3.61011C4.64926 3.44898 4.44912 3.36842 4.21053 3.36842C3.97193 3.36842 3.77179 3.44898 3.61011 3.61011C3.44898 3.77179 3.36842 3.97193 3.36842 4.21053C3.36842 4.44912 3.44898 4.64898 3.61011 4.81011C3.77179 4.97179 3.97193 5.05263 4.21053 5.05263ZM6.73684 8.42105H11.7895V6.73684H6.73684V8.42105ZM6.73684 5.05263H11.7895V3.36842H6.73684V5.05263ZM1.68421 15.1579C1.22105 15.1579 0.824421 14.9931 0.494316 14.6636C0.164772 14.3335 0 13.9368 0 13.4737V1.68421C0 1.22105 0.164772 0.824421 0.494316 0.494316C0.824421 0.164772 1.22105 0 1.68421 0H13.4737C13.9368 0 14.3335 0.164772 14.6636 0.494316C14.9931 0.824421 15.1579 1.22105 15.1579 1.68421V9.11579C14.7789 8.89123 14.3753 8.72281 13.9469 8.61053C13.5192 8.49825 13.0807 8.44211 12.6316 8.44211C11.8877 8.44211 11.193 8.58947 10.5474 8.88421C9.90175 9.17895 9.34737 9.58597 8.88421 10.1053H6.73684V11.7895H7.87368C7.77544 12.0561 7.7019 12.3298 7.65305 12.6105C7.60365 12.8912 7.57895 13.1789 7.57895 13.4737C7.57895 13.7544 7.6 14.0351 7.64211 14.3158C7.68421 14.5965 7.75439 14.8772 7.85263 15.1579H1.68421Z" fill="black"/>
</svg>
