<svg width="17" height="16" viewBox="0 0 17 16" fill="none" xmlns="http://www.w3.org/2000/svg">
<path d="M9.00241 6.45411L7.92029 5.37199L9.13768 4.13527H5.91063V2.58938H9.13768L7.90097 1.35266L9.00241 0.270538L12.0942 3.36233L9.00241 6.45411ZM5.13768 15.7295C4.71256 15.7295 4.34876 15.5782 4.04628 15.2758C3.74328 14.9728 3.59179 14.6087 3.59179 14.1836C3.59179 13.7585 3.74328 13.3944 4.04628 13.0914C4.34876 12.7889 4.71256 12.6377 5.13768 12.6377C5.5628 12.6377 5.9266 12.7889 6.22908 13.0914C6.53208 13.3944 6.68357 13.7585 6.68357 14.1836C6.68357 14.6087 6.53208 14.9728 6.22908 15.2758C5.9266 15.5782 5.5628 15.7295 5.13768 15.7295ZM12.8671 15.7295C12.442 15.7295 12.0782 15.5782 11.7757 15.2758C11.4728 14.9728 11.3213 14.6087 11.3213 14.1836C11.3213 13.7585 11.4728 13.3944 11.7757 13.0914C12.0782 12.7889 12.442 12.6377 12.8671 12.6377C13.2923 12.6377 13.6563 12.7889 13.9593 13.0914C14.2618 13.3944 14.413 13.7585 14.413 14.1836C14.413 14.6087 14.2618 14.9728 13.9593 15.2758C13.6563 15.5782 13.2923 15.7295 12.8671 15.7295ZM0.5 1.81643V0.270538H3.0314L6.31642 7.22706H11.7271L14.7415 1.81643H16.5L13.099 7.96136C12.9573 8.21901 12.7672 8.41869 12.5286 8.56039C12.2905 8.7021 12.0298 8.77295 11.7464 8.77295H5.98792L5.13768 10.3188H14.413V11.8647H5.13768C4.55797 11.8647 4.11662 11.6135 3.81362 11.1111C3.51114 10.6087 3.50161 10.0998 3.78502 9.58455L4.8285 7.69083L2.04589 1.81643H0.5Z" fill="white"/>
</svg>
