<svg width="18" height="19" viewBox="0 0 18 19" fill="none" xmlns="http://www.w3.org/2000/svg">
<path d="M5.39981 14.9C4.40985 14.9 3.60888 15.71 3.60888 16.7C3.60888 17.69 4.40985 18.5 5.39981 18.5C6.38978 18.5 7.19975 17.69 7.19975 16.7C7.19975 15.71 6.38978 14.9 5.39981 14.9ZM0 0.5V2.3H1.79994L5.03983 9.131L3.82487 11.336C3.68087 11.588 3.59988 11.885 3.59988 12.2C3.59988 13.19 4.40985 14 5.39981 14H16.1994V12.2H5.7778C5.65181 12.2 5.55281 12.101 5.55281 11.975L5.57981 11.867L6.38978 10.4H13.0946C13.7695 10.4 14.3635 10.031 14.6695 9.473L17.8914 3.632C17.9656 3.49465 18.003 3.34038 17.9998 3.18428C17.9966 3.02817 17.953 2.87556 17.8732 2.74135C17.7934 2.60714 17.6802 2.49593 17.5445 2.41857C17.4089 2.34121 17.2555 2.30036 17.0994 2.3H3.78887L2.9429 0.5H0ZM14.3995 14.9C13.4095 14.9 12.6086 15.71 12.6086 16.7C12.6086 17.69 13.4095 18.5 14.3995 18.5C15.3895 18.5 16.1994 17.69 16.1994 16.7C16.1994 15.71 15.3895 14.9 14.3995 14.9Z" fill="#332C45"/>
</svg>
