<svg width="18" height="17" viewBox="0 0 18 17" fill="none" xmlns="http://www.w3.org/2000/svg">
<path d="M9.09 14.2375L9 14.3275L8.901 14.2375C4.626 10.3585 1.8 7.79349 1.8 5.19249C1.8 3.39249 3.15 2.04249 4.95 2.04249C6.336 2.04249 7.686 2.94249 8.163 4.16649H9.837C10.314 2.94249 11.664 2.04249 13.05 2.04249C14.85 2.04249 16.2 3.39249 16.2 5.19249C16.2 7.79349 13.374 10.3585 9.09 14.2375ZM13.05 0.242493C11.484 0.242493 9.981 0.971493 9 2.11449C8.019 0.971493 6.516 0.242493 4.95 0.242493C2.178 0.242493 0 2.41149 0 5.19249C0 8.58549 3.06 11.3665 7.695 15.5695L9 16.7575L10.305 15.5695C14.94 11.3665 18 8.58549 18 5.19249C18 2.41149 15.822 0.242493 13.05 0.242493Z" fill="#352D48"/>
</svg>
