<svg width="16" height="18" viewBox="0 0 16 18" fill="none" xmlns="http://www.w3.org/2000/svg">
<path d="M1.99966 16H4.99966V10H10.9997V16H13.9997V7L7.99966 2.5L1.99966 7V16ZM1.99966 18C1.44966 18 0.978997 17.8043 0.587664 17.413C0.195664 17.021 -0.000335693 16.55 -0.000335693 16V7C-0.000335693 6.68333 0.0706641 6.38333 0.212664 6.1C0.353997 5.81667 0.549664 5.58333 0.799664 5.4L6.79966 0.9C6.983 0.766667 7.17466 0.666667 7.37466 0.6C7.57466 0.533333 7.783 0.5 7.99966 0.5C8.21633 0.5 8.42466 0.533333 8.62466 0.6C8.82466 0.666667 9.01633 0.766667 9.19966 0.9L15.1997 5.4C15.4497 5.58333 15.6457 5.81667 15.7877 6.1C15.929 6.38333 15.9997 6.68333 15.9997 7V16C15.9997 16.55 15.804 17.021 15.4127 17.413C15.0207 17.8043 14.5497 18 13.9997 18H8.99966V12H6.99966V18H1.99966Z" fill="#332C45"/>
</svg>
