<svg width="20" height="17" viewBox="0 0 20 17" fill="none" xmlns="http://www.w3.org/2000/svg">
<path d="M2 0.5C1.46957 0.5 0.960859 0.710714 0.585786 1.08579C0.210714 1.46086 0 1.96957 0 2.5V6.5C0.530433 6.5 1.03914 6.71071 1.41421 7.08579C1.78929 7.46086 2 7.96957 2 8.5C2 9.03043 1.78929 9.53914 1.41421 9.91421C1.03914 10.2893 0.530433 10.5 0 10.5V14.5C0 15.0304 0.210714 15.5391 0.585786 15.9142C0.960859 16.2893 1.46957 16.5 2 16.5H18C18.5304 16.5 19.0391 16.2893 19.4142 15.9142C19.7893 15.5391 20 15.0304 20 14.5V10.5C19.4696 10.5 18.9609 10.2893 18.5858 9.91421C18.2107 9.53914 18 9.03043 18 8.5C18 7.96957 18.2107 7.46086 18.5858 7.08579C18.9609 6.71071 19.4696 6.5 20 6.5V2.5C20 1.96957 19.7893 1.46086 19.4142 1.08579C19.0391 0.710714 18.5304 0.5 18 0.5H2ZM13.5 3.5L15 5L6.5 13.5L5 12L13.5 3.5ZM6.81 3.54C7.79 3.54 8.58 4.33 8.58 5.31C8.58 5.77943 8.39352 6.22964 8.06158 6.56158C7.72964 6.89352 7.27943 7.08 6.81 7.08C5.83 7.08 5.04 6.29 5.04 5.31C5.04 4.84057 5.22648 4.39036 5.55842 4.05842C5.89036 3.72648 6.34057 3.54 6.81 3.54ZM13.19 9.92C14.17 9.92 14.96 10.71 14.96 11.69C14.96 12.1594 14.7735 12.6096 14.4416 12.9416C14.1096 13.2735 13.6594 13.46 13.19 13.46C12.21 13.46 11.42 12.67 11.42 11.69C11.42 11.2206 11.6065 10.7704 11.9384 10.4384C12.2704 10.1065 12.7206 9.92 13.19 9.92Z" fill="#332C45"/>
</svg>
